<svg xmlns="http://www.w3.org/2000/svg">
    <symbol id="technical-support" viewBox="0 0 512 512">
    <title>Techincal Support</title>
    <path d="M469 128h-5c-3-11-7-22-13-31l4-4c4-4 7-10 7-16s-3-11-7-16l-24-24c-5-4-10-7-16-7s-12 3-16 7l-4 3c-10-5-20-9-31-12v-6c0-12-10-22-22-22h-35c-12 0-22 10-22 22v6c-11 3-21 7-31 12l-4-3c-4-4-10-7-16-7s-11 3-16 7l-24 24c-4 5-7 10-7 16s3 12 7 16l4 4c-6 10-10 20-13 31h-5c-13 0-23 10-23 22v35c0 12 10 22 23 22h5c3 11 7 21 13 31l-4 4c-4 4-7 10-7 16s3 11 7 15l24 25c5 4 10 7 16 7s12-3 16-7l4-4c10 6 20 10 31 13v5c0 13 10 23 22 23h35c12 0 22-10 22-23v-5c11-3 21-7 31-13l4 4c4 4 10 7 16 7s11-3 16-7l24-25c4-4 7-9 7-15s-3-12-7-16l-4-4c6-10 10-20 13-31h5c13 0 23-10 23-22v-35c0-12-10-22-23-22zM344 312c0 2-1 3-2 3h-35c-1 0-2-1-2-3v-76c0-4-3-8-7-9a69 69 0 01-13-122v52a41 41 0 0040 42c22-2 39-20 39-42v-47-2l-1-4 3 2a69 69 0 01-15 121c-4 1-7 5-7 9v76zm128-127c0 1-1 2-3 2h-12c-5 0-9 3-10 8-3 14-9 27-17 39-2 4-1 9 2 13l9 9 1 2-1 1-25 25-1 1-2-1-9-9c-3-4-9-4-13-2-8 6-17 10-27 13v-43c31-14 52-46 52-80 0-30-15-57-39-74-4-2-15-10-25-4-10 5-9 19-8 24v48c0 11-9 21-19 22-11-1-20-11-20-22v-47-1c1-5 2-19-8-24-10-6-21 2-25 4a89 89 0 0013 154v43c-10-3-19-7-27-13a10 10 0 00-13 2l-9 9-2 1-1-1-25-25-1-1 1-2 9-9c3-4 4-9 2-13-8-12-14-25-17-39-1-5-5-8-9-8h-13c-2 0-3-1-3-2v-35c0-1 1-2 3-2h13c4 0 8-4 9-8 3-14 9-27 17-40 2-3 1-9-2-12l-9-9-1-2 1-2 25-24 1-1 2 1 9 9c3 3 9 4 13 1 12-7 25-13 39-16 4-1 8-5 8-10V22l2-2h35l2 2v13c0 5 4 9 8 10 14 3 27 9 39 16 4 3 10 2 13-1l9-9 2-1 1 1 25 24 1 2-1 2-9 9c-3 3-4 9-2 12 8 13 14 26 17 40 1 4 5 8 10 8h12c2 0 3 1 3 2v35zM383 440a10 10 0 0014 14 10 10 0 10-14-14z"/><path d="M429 343l-79 41c-7-7-16-11-27-11h-58l-3-3h-1c-44-42-81-39-123-23-7 3-7 3-14 3h-12c-4-10-14-18-25-18H47c-15 0-27 12-27 27v105c0 14 12 26 27 26h40c11 0 21-7 25-18h22l5 1 3 1 103 27 13 4c13 4 25 7 36 7a79 79 0 0045-16l20-14a10 10 0 10-12-17l-19 14c-26 18-38 15-64 7l-13-4-104-28h-3c-4-2-5-2-10-2h-21v-82h12c8 0 11 0 20-4 37-15 66-16 103 18v1c7 6 10 8 21 8h54c7 0 12 3 15 9l2 8c0 9-8 17-17 17h-88a10 10 0 000 20h88a37 37 0 0036-45l79-41c8-4 18-3 23 5 5 7 2 17-6 23l-34 24a10 10 0 0011 16l35-24c16-12 21-33 11-49-10-17-31-22-49-13zM93 464c0 3-3 6-6 6H47c-4 0-7-3-7-6V359c0-4 3-7 7-7h40c3 0 6 3 6 7z"/>
    </symbol>
    <symbol id="remote-monitoring" viewBox="0 0 62 62">
    <title>Remote Monitoring</title>
    <path d="M20 6a14 14 0 100 28 14 14 0 000-28zm11 9h-5l-2-6c3 1 5 3 7 6zm1 5v3h-6v-3-3h6v3zM20 32c-1 0-3-3-4-7h8c-1 4-3 7-4 7zm-4-9v-3-3h8v6zm-8-3v-3h6v6H8v-3zM20 8c1 0 3 3 4 7h-8c1-4 3-7 4-7zm-4 1l-2 6H9c2-3 4-5 7-6zM9 25h5l2 6c-3-1-5-3-7-6zm15 6l2-6h5c-2 3-4 5-7 6z"/><path d="M60 16H39l-2-1-1-4 1-3-5-5-3 1-4-1-1-3h-8l-1 3-4 1-3-1-5 5 1 3-1 4-3 1v8l3 1 1 4-1 3 5 5 3-1 4 1 1 3h8l1-3 4-1 3 1 5-5-1-3 1-4 2-1h7v4l2 2h2l2-2v-4h2v2l2 2h2l2-2v-2l2-2v-4l-2-2zm-22 6l-2 1v1l-2 4-1 1 1 2-3 3-2-1-1 1-4 2h-1l-1 2h-4l-1-2h-1l-4-2-1-1-2 1-3-3 1-2-1-1-2-4v-1l-2-1v-4l2-1v-1l2-4 1-1-1-2 3-3 2 1 1-1 4-2h1l1-2h4l1 2h1l4 2 1 1 2-1 3 3-1 2 1 1 2 4v1l2 1zm12 6h-2v-4h2zm8-2h-2v-2h2zm2-4H40v-4h20zM21 42H5c-2 0-3 1-3 3v10c0 2 1 3 3 3h4v2H5v2h16v-2h-4v-2h4c2 0 3-1 3-3V45c0-2-1-3-3-3zM5 44h16l1 1v7H4v-7l1-1zm10 16h-4v-2h4zm6-4H5l-1-1v-1h18v1l-1 1zM57 42H41c-2 0-3 1-3 3v10c0 2 1 3 3 3h4v2h-4v2h16v-2h-4v-2h4c2 0 3-1 3-3V45c0-2-1-3-3-3zm-16 2h16l1 1v7H40v-7l1-1zm10 16h-4v-2h4zm6-4H41l-1-1v-1h18v1l-1 1zM28 49h-2v2h4V39h-2zM34 39h-2v12h4v-2h-2z"/>
    </symbol>
    <symbol id="motion-robotics" viewBox="0 0 496 496">
    <title>Motion Robotics</title>
    <path d="M360 336H0v32h16v-16h16v16h16v-16h16v16h16v-16h16v16h16v-16h16v16h16v-16h16v16h16v-16h16v16h16v-16h16v16h16v-16h16v16h16v-16h16v16h16v-16h16v16h16v-16h16v16h16v-15c6 0 12 2 17 4l-8 13 14 8 8-13 12 12-13 8 8 14 13-8c2 5 4 11 4 17h-15v16h15c0 6-2 12-4 17l-13-8-8 14 13 8-12 12-8-13-14 8 8 13c-5 2-11 4-17 4v-15h-16v16h-16v-16h-16v16h-16v-16h-16v16h-16v-16h-16v16h-16v-16h-16v16h-16v-16h-16v16h-16v-16h-16v16h-16v-16h-16v16h-16v-16H96v16H80v-16H64v16H48v-16H32v16H16v-16H0v32h360a80 80 0 000-160z"/>
    <path d="M72 448a32 32 0 100-64 32 32 0 000 64zm0-48a16 16 0 110 32 16 16 0 010-32zM168 448a32 32 0 100-64 32 32 0 000 64zm0-48a16 16 0 110 32 16 16 0 010-32zM264 448a32 32 0 100-64 32 32 0 000 64zm0-48a16 16 0 110 32 16 16 0 010-32zM360 448a32 32 0 100-64 32 32 0 000 64zm0-48a16 16 0 110 32 16 16 0 010-32zM72 256h16v48h80v-48h16v-40h32V112h-64V96h8c22 0 40-18 40-40v-8c0-19-14-35-32-39V0h-16v24h-48V0H88v40h16v72H40v104h32v40zm80-216h16V25c9 4 16 13 16 23v8c0 13-11 24-24 24h-8V40zm0 248h-48v-32h48v32zm16-80v32H88v-48h80v16zm0-32H88v-16h80v16zM120 40h16v72h-16V40zM56 200v-72h144v72h-16v-56H72v56H56z"/>
    <path d="M104 208h16v16h-16zM136 208h16v16h-16zM432 112V96h8c22 0 40-18 40-40v-8c0-19-14-35-32-39V0h-16v24h-48V0h-16v40h16v72h-64v104h32v88h112v-88h32V112h-64zm0-72h16V25c9 4 16 13 16 23v8c0 13-11 24-24 24h-8V40zm-32 0h16v72h-16V40zm48 248h-80v-40h16v16h16v-16h16v16h16v-16h16v40zm0-80v24h-16v-16h-16v16h-16v-16h-16v16h-16v-40h80v16zm0-32h-80v-16h80v16zm32 24h-16v-56H352v56h-16v-72h144v72z"/>
    </symbol>
    <symbol id="machine-tools" viewBox="0 0 64 64">
    <title>Machine Tools</title>
    <path d="M60 21H33v-2h5c2 0 3-1 3-3V4c0-2-1-3-3-3H4C2 1 1 2 1 4v12c0 2 1 3 3 3h5v2l-2 3v32l2 3 1 4h8l1-4h32l1 4h8l1-4 2-3V24c0-2-1-3-3-3zm1 3v17h-6V23h5l1 1zM27 41v-4h6v2h20v2H27zm2 6h2v4h-2v-4zm-2-2h-2v-2h10v2h-8zm26-22v2H35v2h-8v-4h26zM33 33v2h-6v-6h8v2h18v2H33zm20-4H37v-2h16v2zm-18 6h2v2h-2v-2zm4 0h2v2h-2v-2zm4 0h2v2h-2v-2zm4 0h2v2h-2v-2zm4 0h2v2h-2v-2zm-26 6H9v-6h16v6zM3 16V4l1-1h34l1 1v12l-1 1H4l-1-1zm28 3v2H11v-2h20zm-21 4h15v10H9v-9l1-1zM9 43h14v4h4v6h6v-6h4v-4h8v14H10l-1-1V43zm7 18h-4l-1-2h6l-1 2zm38 0l-1-2h6l-1 2h-4zm6-4H47V43h14v13l-1 1z"/><path d="M5 15h14V5H5v10zm2-4h2v2H7v-2zm6 0v2h-2v-2h2zm-2-2V7h2v2h-2zm4 4v-2h2v2h-2zm2-4h-2V7h2v2zM9 7v2H7V7h2zM21 15h12V5H21v10zm2-8h8v6h-8V7zM35 5h2v2h-2zM35 9h2v2h-2zM35 13h2v2h-2zM21 45H11v10h10V45zm-2 8h-6v-6h6v6z"/><circle cx="16" cy="50" r="1"/><path d="M23 25H11v6h12v-6zm-2 4h-8v-2h8v2zM54 45a5 5 0 100 10 5 5 0 000-10zm1 8v-4h-2v4a3 3 0 112 0z"/>
    </symbol>
    <symbol id="water-treatment-plant" viewBox="0 0 64 64">
    <title>Water Treatment Plant</title>
    <path d="M10 49a6 6 0 0012 0c0-3-4-9-6-13-2 4-6 10-6 13zM37 33h-1v24h1a1 1 0 001-1V34a1 1 0 00-1-1zM24 37a2 2 0 004 0l-2-3-2 3zM40 54h16V36H40zm5-14h4l-2-1 2-2 3 3a1 1 0 010 2l-3 3-2-2 2-1h-4zm-1 8l3-3 2 2-2 1h4v2h-4l2 1-2 2-3-3a1 1 0 010-2zM59 33a1 1 0 00-1 1v22a1 1 0 001 1h1V33zM28 24V8H10v16zm-7-9l1 2v-4h2v4l1-2 2 2-3 3a1 1 0 01-2 0l-3-3zm-7-3a1 1 0 012 0l3 3-2 2-1-2v4h-2v-4l-1 2-2-2zM8 6h22a1 1 0 001-1V4H7v1a1 1 0 001 1z"/><path d="M33 30H5a1 1 0 00-1 1v28a1 1 0 001 1h28a1 1 0 001-1V31a1 1 0 00-1-1zM6 32h2v2H6zm10 25a8 8 0 01-8-8c0-4 6-14 7-16a1 1 0 012 0c1 2 7 12 7 16a8 8 0 01-8 8zm10-16a4 4 0 01-4-4l3-6a1 1 0 012 0l3 6a4 4 0 01-4 4zm6 17h-2v-2h2zM31 27a1 1 0 00-1-1H8a1 1 0 00-1 1v1h24zM42 26h2v8h2v-9a1 1 0 00-1-1h-3a3 3 0 100 2zM56 16h-4a3 3 0 100 2h3v9l-5 7h2l5-6a1 1 0 000-1V17a1 1 0 00-1-1zM30 12h8v2a3 3 0 102 0v-3a1 1 0 00-1-1h-9z"/>
    </symbol>
    <symbol id="service-circle-back" viewBox="0 0 512 512">
    <title>Service Circle Back</title>
    <path d="M256 0C115 0 0 115 0 256s115 256 256 256 256-115 256-256S397 0 256 0z"/>
    </symbol>
    <symbol id="pharmaceutical-plant" viewBox="0 0 512 512">
    <title>Pharmaceutical Plant</title>
    <path d="M120 236a21 21 0 0021 21c6 0 11-2 15-6l25-25a21 21 0 00-30-30l-25 25c-4 4-6 10-6 15zm51-29c2 2 2 6 0 9l-8 7-8-9 7-7c2-2 6-2 9 0zm-34 25l7-7 9 8-8 8a6 6 0 01-8-9zM214 213h72a7 7 0 100-15h-72a7 7 0 100 15zM214 250h72a7 7 0 100-15h-72a7 7 0 100 15z"/><path d="M505 497h-19l-2-21a8 8 0 00-15 2l2 19h-88v-70h81l2 21a8 8 0 0015-2l-28-275h3c7 0 12-5 12-12v-15c0-7-5-13-12-13H343c-7 0-12 6-12 13v15c0 7 5 12 12 12h3l-8 77-2 28h-16v-99c0-11-9-21-21-21H158a7 7 0 100 15h141c4 0 6 3 6 6v99H103v-99c0-3 3-6 6-6h19a7 7 0 100-15h-19c-11 0-21 10-21 21v99H13c-7 0-13 6-13 13v15c0 7 6 13 13 13h13v75a7 7 0 1015 0v-75h327v180h-80v-61c0-8-6-14-14-14H134c-7 0-13 6-13 14v61H41v-75a7 7 0 10-15 0v75H7a7 7 0 100 15h497a7 7 0 100-15zm-122-85v-70h72l7 70zm62-170h-91l7-71h77zm-99-96h107v10H346zM15 302v-11h378v11H15zm380 15c8 0 13-6 13-13v-15c0-7-5-13-13-13h-44l2-19h94l7 70h-71v-10h12zM136 437h61v60h-61zm76 60v-60h61v60z"/><path d="M100 403c7 0 13-5 13-12v-43c0-7-6-13-13-13H69c-7 0-12 6-12 13v43c0 7 5 12 12 12zm-28-53h26v38H72zM180 403c7 0 13-5 13-12v-43c0-7-6-13-13-13h-31c-7 0-13 6-13 13v43c0 7 6 12 13 12zm-29-53h27v38h-27zM259 403c7 0 13-5 13-12v-43c0-7-6-13-13-13h-30c-7 0-13 6-13 13v43c0 7 6 12 13 12zm-28-53h26v38h-26zM339 403c7 0 13-5 13-12v-43c0-7-6-13-13-13h-31c-7 0-12 6-12 13v43c0 7 5 12 12 12zm-28-53h26v38h-26zM366 83c8 0 15 7 15 15v17a7 7 0 1015 0V98c0-17-13-30-30-30-8 0-14-7-14-15V7a7 7 0 10-15 0v46c0 17 13 30 29 30zM411 104v11a7 7 0 1015 0v-11c0-5 3-8 7-8h13c12 0 22-10 22-22V35a7 7 0 10-15 0v39c0 4-3 7-7 7h-13c-12 0-22 10-22 23zM415 73c4 0 8-3 8-7V8a7 7 0 10-15 0v58c0 4 3 7 7 7z"/><path d="M376 55c4 0 8-3 8-7V30a7 7 0 10-15 0v18c0 4 3 7 7 7z"/>
    </symbol>
    <symbol id="oil-gas-plant" viewBox="0 0 64 64">
    <title>Oil Gas Plant</title>
    <path d="M12 51v6h2v-6a12 12 0 01-2 0zM9 57l1-6-2-1-1 7zM17 57h2l-1-7-2 1zM23 16c4 0 7 3 7 8v1a11 11 0 014 0v-1a12 12 0 00-23-1h4c0-4 4-7 8-7zM49 18a4 4 0 011-3l3-5-3-4-1 1c-2 1-3 3-3 5a7 7 0 003 6zM51 17a2 2 0 104-1l-2-2-2 2v1zM39 57h10V43H39zm6-12h2v2h-2zm0 4h2v2h-2zm0 4h2v2h-2zm-4-8h2v2h-2zm0 4h2v2h-2zm0 4h2v2h-2zM59 21H47v2h12zM57 17v1c2-1 3-4 3-6 0-3-1-5-3-7l-2 4-2 1 3 5 1 2zM3 59h58v2H3z"/><path d="M59 57V25H47v16h4v16zM49 39V27h8v12z"/><path d="M51 29h4v8h-4zM13 29c-3 0-6 2-8 4h16c-2-2-5-4-8-4zM13 49c6 0 10-4 10-10H3c0 6 4 10 10 10zM25 39l-2 7v11h2V47h10v10h2V41h4v-4H25v2z"/><path d="M27 49h6v8h-6zM22 35H4l-1 2h20l-1-2zM16 27v-2h-6v2h6zM23 33l1 2h17a9 9 0 00-18-2z"/>
    </symbol>
    <symbol id="food-machine" viewBox="0 0 512 512">
    <title>Food Machine</title>
    <path d="M303 253H156c-5 0-9 4-9 9v48c0 6 4 10 9 10h147c5 0 10-4 10-10v-48c0-5-5-9-10-9zm-5 52H162v-37h136v37z"/><circle cx="229.6" cy="286.3" r="7.5"/><circle cx="192.8" cy="286.3" r="7.5"/><circle cx="266.4" cy="286.3" r="7.5"/><path d="M148 173h33a8 8 0 000-15h-33a8 8 0 000 15zM148 200h33a8 8 0 000-15h-33a8 8 0 000 15zM181 227a8 8 0 000-15h-33a8 8 0 000 15zM213 173h33a8 8 0 000-15h-33a8 8 0 000 15zM213 200h33a8 8 0 000-15h-33a8 8 0 000 15zM213 227h33a8 8 0 000-15h-33a8 8 0 000 15zM311 158h-33a8 8 0 000 15h33a8 8 0 000-15zM311 185h-33a8 8 0 000 15h33a8 8 0 000-15zM311 212h-33a8 8 0 000 15h33a8 8 0 000-15z"/><circle cx="33.2" cy="252.3" r="7.5"/><circle cx="58.9" cy="252.3" r="7.5"/><circle cx="83.9" cy="252.3" r="7.5"/><path d="M495 223l1-7c0-22-18-40-41-40h-9a41 41 0 00-41 42h-10v-2c0-21-17-39-38-40v-41c0-4-3-8-7-9v-18c0-5-4-9-9-9H175a8 8 0 000 15h160v11H124v-11h16a8 8 0 000-15h-22c-5 0-9 4-9 9v18c-4 1-7 5-7 9v41H87a41 41 0 00-40 42H34a34 34 0 000 68h68v50c0 5 5 10 10 10h8v9a8 8 0 0015 0v-9h10v69h-10v-25a8 8 0 00-15 0v25h-9a8 8 0 000 15h58a8 8 0 000-15h-9v-69h139v69h-9a8 8 0 000 15h58a8 8 0 000-15h-9v-69h8c6 0 10-5 10-10v-50h15a8 8 0 000-15h-15v-38h121a19 19 0 010 38h-71a8 8 0 000 15h71a34 34 0 0017-63zm-434-7c0-14 12-25 26-25h15v27H63l-2-2zm-27 55a19 19 0 010-38h68v38zm290 144h-10v-69h10zm18-84H117V140h225zm15-140c13 1 23 12 23 25l-2 2h-21zm65 27l-2-2c0-14 11-25 26-25h9c14 0 26 11 26 25l-2 2z"/><circle cx="478.8" cy="252.3" r="7.5"/><circle cx="453.1" cy="252.3" r="7.5"/><circle cx="427.4" cy="252.3" r="7.5"/><circle cx="401.7" cy="252.3" r="7.5"/><circle cx="376" cy="252.3" r="7.5"/><path d="M459 145a7 7 0 1011 9l3-3c9-10 9-24 0-34l-3-4c-3-4-3-10 0-15l3-3a7 7 0 10-11-10l-3 4c-8 10-8 24 0 34l3 3c3 5 3 11 0 15zM420 145a7 7 0 1011 9l3-3c8-10 8-24 0-34l-3-4c-3-4-3-10 0-15l3-3a7 7 0 10-11-10l-3 4c-8 10-8 24 0 34l3 3c3 5 3 11 0 15zM381 145a7 7 0 1011 9l3-3c8-10 8-24 0-34l-3-4c-3-4-3-10 0-15l3-3a7 7 0 10-11-10l-3 4c-9 10-9 24 0 34l3 3c3 5 3 11 0 15z"/>
    </symbol>
    <symbol id="material-handling" viewBox="0 0 512 512">
    <title>Material Handling</title>
    <path d="M512 390V26H84v176H54v-37a22 22 0 10-12 0v37H0v92h84v96h32v52h-16v44h76v-44h-16v-52h276v52h-16v44h76v-44h-16v-52zM38 144a10 10 0 1120 0 10 10 0 01-20 0zm46 138H12v-36h72zm0-48H12v-20h72zm416 48H384V70h116zM96 38h404v20H96zm100 212v32h-68V70h84v32h16v32h16v26h12v-26h16v-32h16V70h84v212h-68v-32zm96 12v20h-84v-20zM224 90V70h52v20zm36 12v20h-20v-20zM96 70h20v212H96zm68 384v20h-52v-20zm-36-12v-52h20v52zm356 12v20h-52v-20zm-36-12v-52h20v52zM96 378v-84h404v84z"/><path d="M480 90h-76v44h76zm-12 32h-52v-20h52zM480 154h-76v108h76zm-44 96h-20v-20h20zm0-32h-20v-20h20zm0-32h-20v-20h20zm32 64h-20v-20h20zm0-32h-20v-20h20zm0-32h-20v-20h20zM116 358h44v-44h-44zm12-32h20v20h-20zM180 358h44v-44h-44zm12-32h20v20h-20zM372 358h44v-44h-44zm12-32h20v20h-20zM436 358h44v-44h-44zm12-32h20v20h-20zM244 358h108v-44H244zm12-32h84v20h-84z"/>
    </symbol>
    <symbol id="special-machine" viewBox="0 0 64 64">
    <title>Special Machine</title>
    <path d="M58 53H41V41h-2V22l-4-7h-5v-5h16v1l2 2h3v12l-3 3c-4 1-7 5-7 9 0 2 2 4 4 5v9h14v-9c2-1 4-3 4-5 0-4-3-8-7-9l-3-3V13h3l2-2v-1h1a3 3 0 000-6h-1V3l-2-2h-8l-2 2v1H30c0-2-1-3-3-3H15c-2 0-3 1-3 3v11H7l-4 7v32a5 5 0 003 9h52a5 5 0 000-10zM43 37c0-3 2-6 5-7l3 3v4h-6v3l-2-3zm8 2h2v2h-2zm6 10H47V39h2v4h6v-4h2zm-1-19c3 1 5 4 5 7l-2 3v-3h-6v-4l3-3zm-2-1a2 2 0 11-4 0 2 2 0 014 0zm5-23a1 1 0 010 2h-1V6zM48 3h8v8h-8zm5 55a3 3 0 11-6 0 3 3 0 016 0zm-42 0a3 3 0 116 0 3 3 0 01-6 0zm4-15h2v2h-2zm4 4v-4h2v10H11V43h2v4zm-1 8h4a5 5 0 000 6h-4a5 5 0 000-6zm5 3a3 3 0 116 0 3 3 0 01-6 0zm7-3h4a5 5 0 000 6h-4a5 5 0 000-6zm5 3a3 3 0 116 0 3 3 0 01-6 0zm7-3h4a5 5 0 000 6h-4a5 5 0 000-6zm-13-2V43h2v4h6v-4h2v10zm4-10h2v2h-2zM28 9H14V7h14zm18-3v2H30V6zM15 3h12l1 1v1H14V4l1-1zm-1 8h14v4H14zm-5 6h24l3 4H6zm-4 6h32v18H27v12h-4V41H9v12H6 5zM3 58c0-2 1-3 3-3h4a5 5 0 000 6H6c-2 0-3-1-3-3zm55 3h-4a5 5 0 000-6h4a3 3 0 010 6z"/><path d="M52 4a3 3 0 100 6 3 3 0 000-6zm0 4a1 1 0 110-2 1 1 0 010 2zM19 25H7v14h12zm-2 12H9V27h8zM24 31a3 3 0 100-6 3 3 0 000 6zm0-4a1 1 0 110 2 1 1 0 010-2zM32 31a3 3 0 100-6 3 3 0 000 6zm0-4a1 1 0 110 2 1 1 0 010-2zM21 33h14v2H21zM21 37h2v2h-2zM25 37h6v2h-6zM33 37h2v2h-2z"/>
    </symbol>
</svg>