<svg xmlns="http://www.w3.org/2000/svg">
    <symbol id="technical-support" viewBox="0 0 512 512">
    <title>Techincal Support</title>
    <path d="M469 128h-5c-3-11-7-22-13-31l4-4c4-4 7-10 7-16s-3-11-7-16l-24-24c-5-4-10-7-16-7s-12 3-16 7l-4 3c-10-5-20-9-31-12v-6c0-12-10-22-22-22h-35c-12 0-22 10-22 22v6c-11 3-21 7-31 12l-4-3c-4-4-10-7-16-7s-11 3-16 7l-24 24c-4 5-7 10-7 16s3 12 7 16l4 4c-6 10-10 20-13 31h-5c-13 0-23 10-23 22v35c0 12 10 22 23 22h5c3 11 7 21 13 31l-4 4c-4 4-7 10-7 16s3 11 7 15l24 25c5 4 10 7 16 7s12-3 16-7l4-4c10 6 20 10 31 13v5c0 13 10 23 22 23h35c12 0 22-10 22-23v-5c11-3 21-7 31-13l4 4c4 4 10 7 16 7s11-3 16-7l24-25c4-4 7-9 7-15s-3-12-7-16l-4-4c6-10 10-20 13-31h5c13 0 23-10 23-22v-35c0-12-10-22-23-22zM344 312c0 2-1 3-2 3h-35c-1 0-2-1-2-3v-76c0-4-3-8-7-9a69 69 0 01-13-122v52a41 41 0 0040 42c22-2 39-20 39-42v-47-2l-1-4 3 2a69 69 0 01-15 121c-4 1-7 5-7 9v76zm128-127c0 1-1 2-3 2h-12c-5 0-9 3-10 8-3 14-9 27-17 39-2 4-1 9 2 13l9 9 1 2-1 1-25 25-1 1-2-1-9-9c-3-4-9-4-13-2-8 6-17 10-27 13v-43c31-14 52-46 52-80 0-30-15-57-39-74-4-2-15-10-25-4-10 5-9 19-8 24v48c0 11-9 21-19 22-11-1-20-11-20-22v-47-1c1-5 2-19-8-24-10-6-21 2-25 4a89 89 0 0013 154v43c-10-3-19-7-27-13a10 10 0 00-13 2l-9 9-2 1-1-1-25-25-1-1 1-2 9-9c3-4 4-9 2-13-8-12-14-25-17-39-1-5-5-8-9-8h-13c-2 0-3-1-3-2v-35c0-1 1-2 3-2h13c4 0 8-4 9-8 3-14 9-27 17-40 2-3 1-9-2-12l-9-9-1-2 1-2 25-24 1-1 2 1 9 9c3 3 9 4 13 1 12-7 25-13 39-16 4-1 8-5 8-10V22l2-2h35l2 2v13c0 5 4 9 8 10 14 3 27 9 39 16 4 3 10 2 13-1l9-9 2-1 1 1 25 24 1 2-1 2-9 9c-3 3-4 9-2 12 8 13 14 26 17 40 1 4 5 8 10 8h12c2 0 3 1 3 2v35zM383 440a10 10 0 0014 14 10 10 0 10-14-14z"/><path d="M429 343l-79 41c-7-7-16-11-27-11h-58l-3-3h-1c-44-42-81-39-123-23-7 3-7 3-14 3h-12c-4-10-14-18-25-18H47c-15 0-27 12-27 27v105c0 14 12 26 27 26h40c11 0 21-7 25-18h22l5 1 3 1 103 27 13 4c13 4 25 7 36 7a79 79 0 0045-16l20-14a10 10 0 10-12-17l-19 14c-26 18-38 15-64 7l-13-4-104-28h-3c-4-2-5-2-10-2h-21v-82h12c8 0 11 0 20-4 37-15 66-16 103 18v1c7 6 10 8 21 8h54c7 0 12 3 15 9l2 8c0 9-8 17-17 17h-88a10 10 0 000 20h88a37 37 0 0036-45l79-41c8-4 18-3 23 5 5 7 2 17-6 23l-34 24a10 10 0 0011 16l35-24c16-12 21-33 11-49-10-17-31-22-49-13zM93 464c0 3-3 6-6 6H47c-4 0-7-3-7-6V359c0-4 3-7 7-7h40c3 0 6 3 6 7z"/>
    </symbol>
    <symbol id="remote-monitoring" viewBox="0 0 62 62">
    <title>Remote Monitoring</title>
    <path d="M20 6a14 14 0 100 28 14 14 0 000-28zm11 9h-5l-2-6c3 1 5 3 7 6zm1 5v3h-6v-3-3h6v3zM20 32c-1 0-3-3-4-7h8c-1 4-3 7-4 7zm-4-9v-3-3h8v6zm-8-3v-3h6v6H8v-3zM20 8c1 0 3 3 4 7h-8c1-4 3-7 4-7zm-4 1l-2 6H9c2-3 4-5 7-6zM9 25h5l2 6c-3-1-5-3-7-6zm15 6l2-6h5c-2 3-4 5-7 6z"/><path d="M60 16H39l-2-1-1-4 1-3-5-5-3 1-4-1-1-3h-8l-1 3-4 1-3-1-5 5 1 3-1 4-3 1v8l3 1 1 4-1 3 5 5 3-1 4 1 1 3h8l1-3 4-1 3 1 5-5-1-3 1-4 2-1h7v4l2 2h2l2-2v-4h2v2l2 2h2l2-2v-2l2-2v-4l-2-2zm-22 6l-2 1v1l-2 4-1 1 1 2-3 3-2-1-1 1-4 2h-1l-1 2h-4l-1-2h-1l-4-2-1-1-2 1-3-3 1-2-1-1-2-4v-1l-2-1v-4l2-1v-1l2-4 1-1-1-2 3-3 2 1 1-1 4-2h1l1-2h4l1 2h1l4 2 1 1 2-1 3 3-1 2 1 1 2 4v1l2 1zm12 6h-2v-4h2zm8-2h-2v-2h2zm2-4H40v-4h20zM21 42H5c-2 0-3 1-3 3v10c0 2 1 3 3 3h4v2H5v2h16v-2h-4v-2h4c2 0 3-1 3-3V45c0-2-1-3-3-3zM5 44h16l1 1v7H4v-7l1-1zm10 16h-4v-2h4zm6-4H5l-1-1v-1h18v1l-1 1zM57 42H41c-2 0-3 1-3 3v10c0 2 1 3 3 3h4v2h-4v2h16v-2h-4v-2h4c2 0 3-1 3-3V45c0-2-1-3-3-3zm-16 2h16l1 1v7H40v-7l1-1zm10 16h-4v-2h4zm6-4H41l-1-1v-1h18v1l-1 1zM28 49h-2v2h4V39h-2zM34 39h-2v12h4v-2h-2z"/>
    </symbol>
    <svg id="motion-robotics" viewBox="0 0 496 496">
    <title>Motion Robotics</title>
    <path d="M360 336H0v32h16v-16h16v16h16v-16h16v16h16v-16h16v16h16v-16h16v16h16v-16h16v16h16v-16h16v16h16v-16h16v16h16v-16h16v16h16v-16h16v16h16v-16h16v16h16v-16h16v16h16v-15c6 0 12 2 17 4l-8 13 14 8 8-13 12 12-13 8 8 14 13-8c2 5 4 11 4 17h-15v16h15c0 6-2 12-4 17l-13-8-8 14 13 8-12 12-8-13-14 8 8 13c-5 2-11 4-17 4v-15h-16v16h-16v-16h-16v16h-16v-16h-16v16h-16v-16h-16v16h-16v-16h-16v16h-16v-16h-16v16h-16v-16h-16v16h-16v-16h-16v16h-16v-16H96v16H80v-16H64v16H48v-16H32v16H16v-16H0v32h360a80 80 0 000-160z"/>
    <path d="M72 448a32 32 0 100-64 32 32 0 000 64zm0-48a16 16 0 110 32 16 16 0 010-32zM168 448a32 32 0 100-64 32 32 0 000 64zm0-48a16 16 0 110 32 16 16 0 010-32zM264 448a32 32 0 100-64 32 32 0 000 64zm0-48a16 16 0 110 32 16 16 0 010-32zM360 448a32 32 0 100-64 32 32 0 000 64zm0-48a16 16 0 110 32 16 16 0 010-32zM72 256h16v48h80v-48h16v-40h32V112h-64V96h8c22 0 40-18 40-40v-8c0-19-14-35-32-39V0h-16v24h-48V0H88v40h16v72H40v104h32v40zm80-216h16V25c9 4 16 13 16 23v8c0 13-11 24-24 24h-8V40zm0 248h-48v-32h48v32zm16-80v32H88v-48h80v16zm0-32H88v-16h80v16zM120 40h16v72h-16V40zM56 200v-72h144v72h-16v-56H72v56H56z"/>
    <path d="M104 208h16v16h-16zM136 208h16v16h-16zM432 112V96h8c22 0 40-18 40-40v-8c0-19-14-35-32-39V0h-16v24h-48V0h-16v40h16v72h-64v104h32v88h112v-88h32V112h-64zm0-72h16V25c9 4 16 13 16 23v8c0 13-11 24-24 24h-8V40zm-32 0h16v72h-16V40zm48 248h-80v-40h16v16h16v-16h16v16h16v-16h16v40zm0-80v24h-16v-16h-16v16h-16v-16h-16v16h-16v-40h80v16zm0-32h-80v-16h80v16zm32 24h-16v-56H352v56h-16v-72h144v72z"/>
    </svg>
    <svg id="machine-tools" viewBox="0 0 64 64">
    <title>Machine Tools</title>
    <path d="M60 21H33v-2h5c2 0 3-1 3-3V4c0-2-1-3-3-3H4C2 1 1 2 1 4v12c0 2 1 3 3 3h5v2l-2 3v32l2 3 1 4h8l1-4h32l1 4h8l1-4 2-3V24c0-2-1-3-3-3zm1 3v17h-6V23h5l1 1zM27 41v-4h6v2h20v2H27zm2 6h2v4h-2v-4zm-2-2h-2v-2h10v2h-8zm26-22v2H35v2h-8v-4h26zM33 33v2h-6v-6h8v2h18v2H33zm20-4H37v-2h16v2zm-18 6h2v2h-2v-2zm4 0h2v2h-2v-2zm4 0h2v2h-2v-2zm4 0h2v2h-2v-2zm4 0h2v2h-2v-2zm-26 6H9v-6h16v6zM3 16V4l1-1h34l1 1v12l-1 1H4l-1-1zm28 3v2H11v-2h20zm-21 4h15v10H9v-9l1-1zM9 43h14v4h4v6h6v-6h4v-4h8v14H10l-1-1V43zm7 18h-4l-1-2h6l-1 2zm38 0l-1-2h6l-1 2h-4zm6-4H47V43h14v13l-1 1z"/><path d="M5 15h14V5H5v10zm2-4h2v2H7v-2zm6 0v2h-2v-2h2zm-2-2V7h2v2h-2zm4 4v-2h2v2h-2zm2-4h-2V7h2v2zM9 7v2H7V7h2zM21 15h12V5H21v10zm2-8h8v6h-8V7zM35 5h2v2h-2zM35 9h2v2h-2zM35 13h2v2h-2zM21 45H11v10h10V45zm-2 8h-6v-6h6v6z"/><circle cx="16" cy="50" r="1"/><path d="M23 25H11v6h12v-6zm-2 4h-8v-2h8v2zM54 45a5 5 0 100 10 5 5 0 000-10zm1 8v-4h-2v4a3 3 0 112 0z"/>
    </svg>
</svg>